<?xml version="1.0" encoding="utf-8"?>
<!-- Generator: Adobe Illustrator 24.1.2, SVG Export Plug-In . SVG Version: 6.00 Build 0)  -->
<svg version="1.1" id="Calque_1" xmlns="http://www.w3.org/2000/svg" xmlns:xlink="http://www.w3.org/1999/xlink" x="0px" y="0px"
	 viewBox="0 0 107 31" style="enable-background:new 0 0 107 31;" xml:space="preserve">
<g transform="translate(0.000000,818.000000) scale(0.100000,-0.100000)">
	<path d="M-14.3,8025v-160.6H535h549.3V8025v160.6H535H-14.3V8025z M270.2,8116c0.2-0.3,1.5-2.6,3-5s3.6-6.1,4.8-8.1
		c1.2-1.9,3.2-5.1,4.3-7.1c4.1-7,6.4-10.6,8.1-13.4c1.6-2.5,7.6-12.4,16.4-27.3c1.9-3.1,3.6-5.9,3.8-6.2c0.3-0.4-9.8-0.5-48.6-0.5
		c-38.4,0-48.9,0.1-49.3,0.5c-0.2,0.2-1.5,2.5-3,5s-3.6,6-4.7,7.9c-1.1,1.8-3,5-4.3,7.1c-1.2,2-2.8,4.6-3.4,5.7
		c-0.7,1.1-2.3,3.8-3.7,6.1c-12.4,20.5-16,26.3-16.5,26.3c-0.3,0-2-2.5-3.8-5.6c-1.8-3.1-4.2-7.1-5.3-9c-1.1-1.8-4.6-7.6-7.7-12.8
		c-3.1-5.2-7.6-12.7-9.9-16.7c-2.4-4-5.2-8.8-6.4-10.7c-1.1-1.9-2.1-3.5-2.3-3.7c-0.5-0.2-11-0.3-11.3-0.1c-0.2,0.1,2.2,4.2,5.2,9.2
		c3,5,7.6,12.6,10.1,16.9c2.5,4.3,6.6,11.1,9,15.1c8.8,14.4,10,18.3,7.3,23.4c-0.7,1.3-1.2,2.6-1.3,2.9
		C160.8,8116.7,269.7,8116.7,270.2,8116z M678.4,8112.8c1.9-1.9,5-5,6.8-6.9c3.2-3.2,8-8.2,37.8-38.9c7.7-7.9,14.8-15.3,16-16.4
		l2.1-2.1h-51.8h-51.8l-2.5,2.7c-1.4,1.5-7.3,7.7-13.1,13.8c-15.4,16.2-18.5,19.5-23.4,24.7c-2.4,2.5-6.4,6.6-8.8,9.1l-4.5,4.5
		l-0.3-27.4l-0.2-27.4h-5.6h-5.6v11.5c-0.1,20.2-2.2,41.1-5.7,54.4l-0.5,2l53.7-0.1l53.8-0.1L678.4,8112.8z M1050.5,8113.1
		c-3.5-20.3-3.9-24.7-4.5-44l-0.5-20.5h-45.8h-45.7v27.6c0,16.4-0.3,27.4-0.8,27.2c-0.4-0.2-4.6-4.8-9.4-10.2
		c-4.7-5.4-15.3-17.3-23.3-26.5c-8.2-9.2-14.9-17-15.2-17.4c-0.5-0.8-2.1-0.9-8.6-0.7l-5.3,0.2l2.1,2.2c1.1,1.2,12.9,14.2,26.2,28.9
		c29.4,32.6,31.8,35.1,32.8,36.1c0.7,0.6,3.9,0.7,49.8,0.7h49L1050.5,8113.1z M106.7,8024c8-8.2,13-13.5,13-13.7
		c0-0.1-1.4-0.2-3-0.2c-2.7,0-3.2,0.2-5.1,2l-2.1,2h-9h-9l-2.1-2c-1.8-1.6-2.6-2-4.6-2c-1.3,0-2.6,0.1-2.8,0.2
		c-0.5,0.2,14.2,15.7,15.7,16.5c0.4,0.2,2,0.4,3.5,0.4C103.5,8027.2,103.8,8027,106.7,8024z M189.8,8026.4c5.9-1.4,7.1-4.2,2.7-6.2
		c-3.1-1.4-3-1.3-0.9-1.6c2.9-0.3,5.4-2.6,4.9-4.4c-0.8-3.1-6-4.1-20.4-4.1h-9.3v8.4c0,4.6,0.3,8.5,0.7,8.7
		C168.6,8027.7,187,8027.1,189.8,8026.4z M267.1,8026.9c6.1-0.6,10.9-2.3,13.5-4.8c2.4-2.4,2.6-3.8,0.8-6.2
		c-3.9-5.1-16.9-7.3-27.7-4.8c-15.2,3.5-13.6,13,2.6,15.5C261.6,8027.5,261.7,8027.5,267.1,8026.9z M399.8,8021.8
		c3.3-3,6.4-5.4,6.7-5.4s3.2,2.4,6.3,5.3c5.8,5.5,6.9,6,11.2,5.6l2.1-0.2v-8.5v-8.4l-2.7,0.1l-2.8,0.1l-0.4,6l-0.4,6l-5.6-5.1
		c-5-4.6-5.8-5.1-7.7-5.1c-2.1,0-2.7,0.5-7.2,4.7c-2.7,2.6-5.2,4.8-5.7,4.9c-0.5,0.2-0.9-1.9-0.9-5.7v-5.9h-3h-3v8.4
		c0,4.6,0.2,8.5,0.4,8.6c0.3,0.1,2,0.2,3.7,0.2l3.2,0L399.8,8021.8z M495.1,8027c0.5,0,2.1-1.2,3.3-2.7c1.4-1.5,4.7-5,7.6-7.9
		c2.7-2.9,5-5.5,5-5.8c0-0.4-0.9-0.5-2.8-0.5c-2.6,0-3,0.2-4.6,2l-1.8,2h-9.4h-9.4l-1.8-2c-1.7-1.8-2-2-4.8-2
		c-1.7,0-3.1,0.1-3.1,0.2c0,0.1,1.6,1.9,3.7,4c2.1,2.1,5.7,5.8,8,8.2c3.9,4.2,5.1,4.8,8.1,4.6C493.6,8027.1,494.7,8027,495.1,8027z
		 M582.5,8026.2c6.6-1.3,10.9-4.5,10.9-7.9c0-2.4-4-5.5-8.9-6.9c-4-1.1-4.8-1.2-14.8-1.3L559,8010v8.4c0,6.4,0.3,8.5,1.1,8.7
		C562.5,8027.6,578.9,8027,582.5,8026.2z M647.3,8027c0.8-0.3,1-2.2,0.9-8.6l-0.3-8.2h-3h-3l-0.3,8.2c-0.3,8.5-0.1,8.9,3.3,8.9
		C645.5,8027.4,646.7,8027.2,647.3,8027z M701.3,8026.6c0.8-0.4,3.4-2.2,5.8-4.1c2.4-1.9,4.5-3.5,4.8-3.5c0.3,0,2.6,1.7,5.1,3.8
		c4.8,3.9,6.1,4.5,9,4.3c2.2-0.2,2-0.4-4.8-6.2c-5.6-4.7-5.9-5.2-6.2-7.9l-0.3-2.9l-2.7-0.1c-2.6-0.1-2.8,0-2.9,1
		c-0.1,4.3-0.3,4.6-7,10.1c-3.6,3-6.6,5.5-6.6,5.6s2,0.4,3.7,0.5C699.5,8027.3,700.5,8027,701.3,8026.6z M793.6,8026.9
		c0.6-0.4,13.7-14.1,15.3-15.9c0.7-0.8,0.5-0.9-2.5-0.9c-3.1,0-3.3,0.1-5.1,2l-1.8,2h-9.4h-9.4l-1.8-2c-1.7-1.8-2-2-4.8-2
		c-1.7,0-3.1,0.1-3.1,0.2c0,0.1,2.3,2.6,5.1,5.6c2.9,3,6.4,6.7,7.9,8.2c1.5,1.6,3.3,2.9,4,3C789.7,8027.2,793.2,8027.1,793.6,8026.9
		z M863.7,8026.6c2.1-1.6,17.8-11,18.3-11c0.3,0,0.6,2.6,0.6,5.7v5.7l2.1,0.2c1.2,0.1,2.6,0.1,3,0c0.6-0.2,0.9-3.2,0.9-8.7v-8.4
		h-2.9c-2.7,0-3.4,0.3-12.6,6l-9.8,6l-0.3-6l-0.3-6h-2.9h-3v8.4c0,4.6,0.3,8.5,0.6,8.7C858.3,8027.5,863,8027.1,863.7,8026.6z
		 M942.2,8027c0.6-0.2,3.3-3.2,6.1-6.7c2.8-3.5,5.5-6.3,5.8-6.2c0.7,0.1,7.5,7.7,10.2,11.5c0.8,1,1.5,1.3,3.9,1.4
		c1.6,0.1,3.1,0,3.3-0.1c0.2-0.2-1.8-2.6-4.4-5.5c-2.6-2.9-5.9-6.6-7.3-8.3l-2.6-3.1h-3.3h-3.3l-7.3,8.4c-4,4.6-7.2,8.4-7,8.5
		C936.7,8027.4,941.2,8027.4,942.2,8027z M345.3,7991.1c0.5-0.5,3-4.5,5.7-9c6-10.1,9.1-15.2,15.8-26.3c2.9-4.9,6-10,6.9-11.4
		c4.8-8.1,11.3-15.9,19-22.7c2.7-2.4,4.7-4.5,4.4-4.6c-0.3-0.1-25.1-0.2-55.2-0.2h-54.7l-0.5,2.7c-2.2,10-3.9,13.8-11.7,26.8
		c-1.5,2.5-3.3,5.4-3.9,6.5c-0.7,1.1-2.4,4-3.9,6.5c-1.5,2.5-3.4,5.7-4.3,7.1c-0.9,1.4-2.7,4.6-4.3,7.1c-3.4,5.5-6.7,11-7.9,13.3
		l-0.9,1.6l-72.1-0.1l-72.1-0.1l-2.8-4.7c-1.5-2.6-4.5-7.6-6.6-11.2c-2.1-3.6-5.5-9.2-7.5-12.6c-4.3-7.3-5.2-8.9-8.2-13.7
		c-6.4-10.6-8.4-14.3-10.3-19.1c-1.2-2.9-2.1-5.9-2.1-6.7c0-3.3,0.2-3.3-11.1-3.1c-6,0.1-9.9,0.3-9.8,0.5c0.1,0.2,2.4,2.8,5.2,5.7
		c6.3,6.6,8.8,10.2,16,22.4c3.2,5.3,6.7,11.2,7.9,13.2c1.2,2,3.3,5.7,4.9,8.2c10.7,18,14.7,24.4,15.4,24.6
		c0.5,0.2,56.5,0.3,124.4,0.3h123.3L345.3,7991.1z M584.9,7969.2c0.5-22.3,1.3-30.6,3.7-41.6c0.7-3.1,1.4-6.8,1.5-8.1l0.3-2.4h-11.2
		H568l0.2,2c0.1,1.1,0.9,6.2,2,11.3c2.3,12.3,3.3,26,3.4,45.3c0,8.6,0.3,15.9,0.6,16c0.3,0.2,2.7,0.2,5.4,0.2l4.7-0.1L584.9,7969.2z
		 M797.3,7990.6c5.7-6.2,21.4-21.7,21.8-21.4c0.3,0.2,2.2,2.1,4.1,4.2c10,11.4,15.6,17.5,16.7,18.2c0.9,0.5,12.7,0.7,13.7,0.2
		c0.6-0.3,0.9,0.1-17-20.2c-19.9-22.5-35.1-39.8-44.4-50.4l-7.9-9l-8.5,0.1l-8.6,0.1l-3.6,3.7c-2.1,2-6.4,6.6-9.8,10.2
		c-3.4,3.6-6.8,7.1-7.6,7.9c-0.7,0.7-5.8,6-11.2,11.8c-5.4,5.7-10.6,11.1-11.4,12c-0.9,0.9-3.4,3.6-5.8,6.1
		c-2.3,2.5-9.2,9.6-15.1,15.8c-5.9,6.2-10.6,11.5-10.3,11.7c0.3,0.2,21.8,0.4,51.9,0.4H796L797.3,7990.6z M1045.7,7976.2
		c0-18.1,1.1-34.1,3-44.9c0.7-4.1,1.5-9,1.9-10.9l0.5-3.5h-50.8c-44.5,0-50.8,0.1-51.2,0.6c-0.3,0.3-0.1,2.6,0.4,5
		c2.7,12.1,3.6,22.3,4,44.8c0.3,13,0.6,23.8,0.8,24.1c0.3,0.4,10.2,0.5,45.9,0.5h45.5V7976.2z"/>
	<path d="M97,8020.5c-1.7-1.9-2.9-3.6-2.7-3.8c0.3-0.2,3.2-0.4,6.5-0.4c7,0,7-0.2,2.1,4.7l-2.8,2.9L97,8020.5z"/>
	<path d="M173.4,8024.3c-0.3-0.1-0.6-1.1-0.6-2.1c0-1.5,0.3-1.9,1.8-2.1c3.1-0.5,11.7,0.2,13.2,1c2,1,1,2.7-1.8,3.1
		C183.5,8024.6,174.3,8024.7,173.4,8024.3z"/>
	<path d="M173.4,8017.3c-0.3-0.1-0.6-1.2-0.6-2.4v-2.1h6.7c7.8,0,10.5,0.6,10.5,2.4c0,1.7-2.7,2.4-10,2.4
		C176.7,8017.5,173.7,8017.4,173.4,8017.3z"/>
	<path d="M257.4,8024.1c-3.5-0.7-7.3-2.8-7.5-4.1c-0.3-3.3,1.3-5.1,5.5-6.3c6.3-1.7,12.1-1.4,17,0.9c2.5,1.2,2.9,1.7,3.3,3.6
		c0.3,1.9,0,2.5-1.7,3.6C270.2,8024.3,263.3,8025.2,257.4,8024.1z"/>
	<path d="M491.4,8023c-0.5-0.5-1.9-2-3.1-3.3c-3.3-3.3-3.2-3.4,3.7-3.4c3.3,0,6.2,0.2,6.4,0.4s-1,1.9-2.8,3.8
		C492.4,8023.7,492.1,8023.9,491.4,8023z"/>
	<path d="M565,8018.7v-5.9h6.4c10.6,0,15,1.7,15,5.7c0,3.9-5.5,6-15.6,6H565V8018.7z"/>
	<path d="M789.2,8023c-0.5-0.5-2.1-2.2-3.4-3.6c-1.5-1.4-2.4-2.7-2.1-2.8c0.9-0.4,12.1-0.3,12.6,0.1c0.3,0.2-1,1.9-2.8,3.8
		C790.2,8023.7,789.9,8023.9,789.2,8023z"/>
</g>
</svg>
