<?xml version="1.0" encoding="utf-8"?>
<!-- Generator: Adobe Illustrator 24.1.2, SVG Export Plug-In . SVG Version: 6.00 Build 0)  -->
<svg version="1.1" id="Calque_1" xmlns="http://www.w3.org/2000/svg" xmlns:xlink="http://www.w3.org/1999/xlink" x="0px" y="0px"
	 viewBox="0 0 107 31" style="enable-background:new 0 0 107 31;" xml:space="preserve">
<style type="text/css">
	.st0{fill:#151515;}
</style>
<path class="st0" d="M8.1,21V9.6h2.6v4.7h3.8l3.8-4.7h3.2l-4.7,5.7l4.7,5.7h-3.2l-3.8-4.7h-3.8V21H8.1z M24,21V9.6h2.6V21H24z
	 M30.1,21V9.6h2.1l5.3,3.7h0.1l5.3-3.7H45V21h-2.6v-8.2l-3.6,2.4V21h-2.6v-5.8l-3.6-2.4V21H30.1z M69.2,21V9.6h2.6l8.1,8.2V9.6h2.6
	V21h-2.6l-8.1-8.2V21H69.2z M91.7,21.1c-2,0-3.6-0.5-4.7-1.5c-1.1-1-1.7-2.4-1.7-4.4c0-1.9,0.6-3.3,1.7-4.3c1.1-1,2.7-1.5,4.8-1.5
	h2.9c2.1,0,3.7,0.5,4.8,1.5c1.1,1,1.7,2.4,1.7,4.3c0,1.9-0.6,3.4-1.7,4.4c-1.1,1-2.7,1.5-4.8,1.5H91.7z M92,11.6
	c-1.2,0-2.1,0.2-2.8,0.6c-0.7,0.4-1.1,1.1-1.2,2h10.6c-0.2-0.9-0.6-1.6-1.2-2c-0.7-0.4-1.6-0.6-2.8-0.6H92z M92.1,19h2.5
	c1.2,0,2.1-0.2,2.8-0.6c0.7-0.4,1.1-1.1,1.2-2H88c0.2,0.9,0.6,1.6,1.2,2C89.9,18.8,90.8,19,92.1,19z"/>
<path class="st0" d="M65.8,15.5c0-1.5-0.4-3-1.1-4.2c0,0,0-0.1,0-0.1c-1.5-2.7-4.3-4.5-7.5-4.5c0,0,0,0,0,0c-0.1,0-0.1,0-0.2,0
	c-3.2,0-6,1.7-7.5,4.2c0,0,0,0.1-0.1,0.1c-0.8,1.3-1.3,2.9-1.3,4.5c0,1.5,0.4,3,1.1,4.2c0,0,0,0.1,0,0.1c1.5,2.6,4.3,4.5,7.5,4.5
	c0,0,0,0,0,0c0,0,0,0,0,0c0.1,0,0.1,0,0.2,0c3.2,0,6-1.7,7.5-4.2c0,0,0-0.1,0.1-0.1C65.4,18.7,65.8,17.2,65.8,15.5z M64.2,19.1
	L62,15.3l-2-3.5h4.1c0.6,1.1,0.9,2.4,0.9,3.7C65.1,16.8,64.8,18,64.2,19.1z M59.1,19.2h-4.2l-2.1-3.7l2.1-3.7h4.2l2.1,3.7L59.1,19.2
	z M63.7,11h-4.4h-4l2.1-3.6C60,7.6,62.3,9,63.7,11z M56.5,7.5l-2.2,3.8l-2,3.5l-2.1-3.6C51.6,9,53.9,7.6,56.5,7.5z M49.8,11.9
	l2.2,3.8l2,3.5h-4.1c-0.6-1.1-0.9-2.4-0.9-3.7C48.9,14.2,49.2,13,49.8,11.9z M50.3,20h4.4h4l-2.1,3.6C54,23.4,51.7,22,50.3,20z
	 M57.5,23.5l2.2-3.8l2-3.5l2.1,3.6C62.4,22,60.1,23.4,57.5,23.5z"/>
<path class="st0" d="M107,9.8C107,9.8,107,9.8,107,9.8c0-2.7-1.2-5.3-3.1-7.1c-2-1.9-4.6-2.8-7.3-2.7c-0.2,0-0.4,0.2-0.4,0.4
	c0,2.7,1.2,5.2,3.1,7.1c1.9,1.8,4.3,2.7,6.8,2.7c0,0,0,0,0,0V23c0,3.1-2.5,5.6-5.6,5.6h-2.2c-0.2,0-0.4,0.2-0.4,0.4
	c0,0.2,0.2,0.4,0.4,0.4h2.2c3.5,0,6.4-2.9,6.4-6.4L107,9.8C107,9.8,107,9.8,107,9.8z M106.2,9.5c-2.4,0-4.6-0.9-6.3-2.5
	c-1.7-1.6-2.7-3.8-2.9-6.2c2.4,0,4.6,0.9,6.3,2.5C105.1,4.9,106.1,7.1,106.2,9.5C106.2,9.5,106.2,9.5,106.2,9.5z"/>
<path class="st0" d="M7.7,23.5c-1.9-1.8-4.3-2.7-6.9-2.7V8c0-3.1,2.5-5.6,5.6-5.6h2.2C8.9,2.4,9,2.2,9,2c0-0.2-0.2-0.4-0.4-0.4H6.4
	C2.9,1.6,0,4.5,0,8v13.1c0,0,0,0,0,0c0,0,0,0,0,0c0,2.7,1.2,5.2,3.1,7.1C5,30,7.4,31,10,31c0.2,0,0.3,0,0.5,0c0.2,0,0.4-0.2,0.4-0.4
	C10.8,27.9,9.6,25.3,7.7,23.5z M3.7,27.7c-1.7-1.6-2.7-3.8-2.9-6.2c2.4,0,4.6,0.9,6.3,2.5c1.7,1.6,2.7,3.8,2.9,6.2
	C7.6,30.2,5.4,29.3,3.7,27.7z"/>
<image style="overflow:visible;" width="1280" height="818" xlink:href="photo_2024-07-17_17-19-01.jpg"  transform="matrix(9.512170e-02 0 0 8.033851e-02 -9.4183 -11.1066)">
</image>
</svg>
