<?xml version="1.0" standalone="no"?>
<!DOCTYPE svg PUBLIC "-//W3C//DTD SVG 20010904//EN"
 "http://www.w3.org/TR/2001/REC-SVG-20010904/DTD/svg10.dtd">
<svg version="1.0" xmlns="http://www.w3.org/2000/svg"
 width="1280.000000pt" height="818.000000pt" viewBox="0 0 1280.000000 818.000000"
 preserveAspectRatio="xMidYMid meet">

<g transform="translate(0.000000,818.000000) scale(0.100000,-0.100000)"
fill="#000000" stroke="none">
<path d="M0 4090 l0 -4090 6400 0 6400 0 0 4090 0 4090 -6400 0 -6400 0 0
-4090z m3315 2318 c2 -7 18 -65 35 -128 17 -63 42 -155 56 -205 14 -49 37
-130 50 -180 48 -177 75 -271 94 -340 19 -64 88 -316 191 -695 22 -80 42 -151
44 -157 3 -10 -114 -13 -566 -13 -447 0 -570 3 -574 13 -2 6 -18 64 -35 127
-17 63 -42 153 -55 200 -13 47 -35 128 -50 180 -14 52 -33 118 -40 145 -8 28
-27 97 -43 155 -145 523 -187 670 -192 670 -3 0 -23 -64 -44 -142 -21 -79 -49
-181 -62 -228 -13 -47 -54 -193 -90 -325 -36 -132 -88 -323 -115 -425 -28
-102 -61 -225 -74 -273 -13 -49 -25 -90 -27 -93 -6 -5 -128 -8 -132 -3 -2 2
26 108 61 234 35 127 88 320 118 430 29 110 77 283 105 385 102 367 116 466
85 595 -8 33 -14 66 -15 73 0 18 1269 18 1275 0z m4756 -83 c22 -49 58 -128
79 -175 37 -82 93 -208 440 -990 90 -201 173 -389 186 -417 l24 -53 -603 0
-603 0 -29 68 c-16 37 -85 195 -153 352 -179 412 -216 496 -273 628 -28 64
-74 169 -102 232 l-52 115 -3 -697 -2 -698 -65 0 -65 0 0 293 c-1 515 -26
1047 -66 1385 l-6 52 626 -2 627 -3 40 -90z m4335 8 c-41 -518 -46 -629 -53
-1120 l-6 -523 -534 0 -533 0 0 702 c0 417 -4 698 -9 693 -5 -6 -54 -122 -109
-260 -55 -137 -178 -441 -272 -675 -95 -234 -174 -432 -177 -442 -6 -21 -24
-24 -100 -18 l-62 5 24 55 c13 30 150 361 305 735 343 829 370 895 382 918 8
16 46 17 580 17 l571 0 -7 -87z m-10997 -2269 c93 -210 151 -344 151 -350 0
-2 -16 -4 -35 -4 -32 0 -37 4 -60 50 l-25 50 -105 0 -105 0 -25 -50 c-21 -42
-30 -50 -54 -50 -15 0 -30 2 -33 5 -6 6 166 401 183 421 5 6 23 11 41 10 30
-1 34 -6 67 -82z m969 62 c69 -35 83 -107 32 -158 -36 -35 -35 -34 -11 -41 34
-8 63 -66 57 -112 -9 -78 -70 -105 -238 -105 l-108 0 0 213 c0 118 3 217 8
221 13 14 227 -1 260 -18z m901 13 c71 -15 127 -59 157 -122 28 -61 30 -98 9
-158 -46 -129 -197 -186 -323 -123 -177 88 -158 330 30 395 63 22 64 22 127 8z
m1546 -131 c39 -76 74 -138 78 -138 4 0 37 60 73 134 67 140 80 154 130 142
l24 -6 0 -216 0 -215 -32 3 -33 3 -5 153 -5 153 -65 -130 c-58 -118 -67 -131
-90 -131 -24 0 -32 12 -84 120 -31 65 -61 122 -66 125 -6 4 -10 -49 -10 -144
l0 -151 -35 0 -35 0 0 213 c0 118 2 216 5 219 3 3 23 5 43 4 l37 -1 70 -137z
m1110 133 c6 -1 24 -31 39 -68 16 -38 55 -128 88 -201 32 -73 58 -140 58 -148
0 -9 -11 -14 -33 -14 -30 0 -35 4 -54 50 l-21 50 -110 0 -109 0 -21 -50 c-20
-47 -23 -50 -56 -50 -20 0 -36 2 -36 5 0 3 19 49 43 102 24 54 66 148 93 210
46 107 59 123 94 117 8 -1 20 -3 25 -3z m1018 -20 c77 -34 127 -114 127 -200
0 -62 -47 -141 -104 -176 -47 -28 -56 -30 -173 -34 l-123 -3 0 215 c0 163 3
217 13 221 27 13 219 -4 260 -23z m755 21 c9 -7 12 -57 10 -218 l-3 -209 -35
0 -35 0 -3 209 c-3 216 -1 226 38 226 8 0 21 -4 28 -8z m630 -10 c9 -9 40 -56
67 -104 28 -48 52 -88 56 -88 3 0 30 43 60 96 56 99 71 115 105 110 26 -5 23
-11 -56 -158 -65 -120 -69 -132 -72 -200 l-3 -73 -32 -3 c-30 -3 -33 -1 -34
25 -1 110 -4 118 -82 256 -42 76 -77 139 -77 142 0 3 23 11 43 14 4 0 15 -7
25 -17z m1075 7 c7 -9 160 -360 178 -406 8 -21 6 -23 -29 -23 -36 0 -39 3 -59
50 l-21 50 -110 0 -109 0 -21 -50 c-20 -47 -23 -50 -56 -50 -20 0 -36 2 -36 5
0 2 27 67 60 142 34 76 75 170 92 210 18 40 39 74 47 76 19 4 60 1 64 -4z
m817 -8 c24 -40 207 -280 213 -281 4 0 7 65 7 145 l0 145 24 6 c14 3 30 3 35
-1 7 -4 11 -81 11 -221 l0 -214 -34 0 c-32 0 -40 8 -147 152 l-114 152 -3
-152 -3 -152 -34 0 -35 0 0 213 c0 118 3 217 7 221 10 9 65 -1 73 -13z m914
10 c7 -6 38 -82 71 -170 33 -89 64 -160 68 -158 8 2 87 197 119 294 9 25 17
32 45 35 19 2 36 1 38 -2 2 -4 -21 -67 -51 -141 -30 -74 -69 -169 -85 -211
l-30 -78 -38 0 -38 0 -85 213 c-47 116 -84 214 -82 217 5 10 57 10 68 1z
m-6954 -913 c6 -13 35 -115 66 -228 70 -257 106 -387 184 -670 34 -124 70
-254 80 -290 56 -205 132 -404 221 -577 31 -61 55 -114 51 -117 -3 -3 -292 -6
-643 -6 l-637 0 -6 68 c-26 254 -45 351 -136 682 -18 63 -38 138 -45 165 -8
28 -28 102 -45 165 -18 63 -40 144 -50 180 -10 36 -32 117 -50 180 -40 141
-78 281 -92 338 l-11 42 -840 -2 -840 -3 -33 -120 c-17 -66 -52 -194 -77 -285
-25 -91 -64 -235 -87 -320 -50 -186 -61 -227 -95 -350 -74 -269 -98 -365 -120
-487 -14 -74 -25 -151 -25 -171 0 -84 2 -83 -129 -80 -70 2 -115 7 -114 13 1
6 28 71 61 145 73 167 103 259 187 570 37 135 78 286 92 335 14 50 39 144 57
210 125 459 171 621 180 627 6 4 658 8 1449 8 l1437 0 10 -22z m2792 -558 c6
-569 15 -778 43 -1060 8 -80 16 -172 17 -205 l3 -60 -130 0 -130 0 2 50 c1 28
11 157 23 287 27 312 39 663 40 1154 0 220 3 404 7 408 4 4 32 6 63 4 l55 -3
7 -575z m2474 543 c66 -159 249 -552 254 -546 4 4 26 53 48 108 117 291 182
446 195 463 10 12 148 18 160 6 7 -8 11 3 -198 -514 -232 -574 -409 -1014
-517 -1283 l-92 -228 -99 3 -100 3 -42 95 c-24 52 -75 169 -114 260 -40 91
-79 181 -88 200 -8 19 -67 154 -130 300 -63 146 -123 283 -133 305 -10 22 -40
92 -68 155 -27 63 -107 245 -176 403 -69 159 -124 293 -120 298 3 5 254 9 605
9 l600 0 15 -37z m2894 -365 c0 -460 13 -868 35 -1143 8 -104 18 -229 22 -277
l6 -88 -592 0 c-519 0 -592 2 -597 15 -4 8 -1 66 5 128 32 308 42 569 47 1142
3 330 7 606 9 613 4 9 119 12 535 12 l530 0 0 -402z"/>
<path d="M1297 3976 c-20 -48 -34 -92 -31 -97 3 -5 37 -9 76 -9 82 0 81 -4 25
120 l-33 74 -37 -88z"/>
<path d="M2187 4073 c-4 -3 -7 -28 -7 -54 0 -39 4 -49 21 -54 36 -12 136 5
154 25 23 26 12 68 -21 80 -29 11 -137 13 -147 3z"/>
<path d="M2187 3893 c-4 -3 -7 -30 -7 -60 l0 -53 78 0 c91 0 122 15 122 60 0
44 -31 60 -116 60 -39 0 -74 -3 -77 -7z"/>
<path d="M3165 4066 c-41 -18 -85 -71 -87 -104 -4 -83 15 -130 64 -160 73 -43
141 -36 198 23 29 30 34 43 38 92 3 48 0 64 -20 92 -43 64 -124 87 -193 57z"/>
<path d="M5892 4040 c-6 -14 -22 -51 -36 -84 -38 -85 -37 -86 43 -86 39 0 72
4 75 9 3 5 -12 49 -33 97 -37 82 -41 87 -49 64z"/>
<path d="M6750 3930 l0 -150 75 0 c123 0 175 44 175 146 0 100 -64 154 -182
154 l-68 0 0 -150z"/>
<path d="M9362 4040 c-6 -14 -24 -55 -40 -92 -17 -36 -28 -69 -25 -72 10 -10
141 -7 147 3 3 5 -12 49 -33 97 -37 82 -41 87 -49 64z"/>
</g>
</svg>
